<svg xmlns="http://www.w3.org/2000/svg" xmlns:xlink="http://www.w3.org/1999/xlink" version="1.1" x="0px" y="0px" viewBox="0 0 512 512" xml:space="preserve">
	<circle cx="256" cy="256" r="226" fill="#aed473" stroke="#f5ebc1" stroke-width="30" />
	
	<path d="M273.6,390.5l0.2-222.1l42,42.2c6.9,6.9,18,6.9,24.9,0l0,0c6.9-6.9,6.9-18.2,0-25.1l-72.2-72.2      c-6.9-6.9-18-6.9-24.9,0l-72.2,72.2c-6.9,6.9-6.9,18.2,0,25.1l0,0c6.9,6.9,18,6.9,24.9,0l42.2-42.2l-0.2,222.1      c0,9.7,7.9,17.6,17.6,17.6l0,0C265.6,408.1,273.5,400.1,273.6,390.5z" fill="#f5ebc1" />
</svg>